<svg width="197" height="52" viewBox="0 0 197 52" fill="none" xmlns="http://www.w3.org/2000/svg">
<path d="M17.265 25.0354L14.5462 22.3166L18.2949 18.5679L33.0838 22.5638L35.0611 30.3907L24.1857 41.2661L10.5503 37.7646L11.539 33.8923L23.0735 36.9407L30.7769 29.2373L29.9118 25.6534L19.366 22.9345L17.265 25.0354Z" fill="#7D5EE0"/>
<path d="M23.4019 26.9641L26.1208 29.6829L22.3721 33.4316L7.58321 29.4358L5.60587 21.6088L16.4812 10.7334L30.1167 14.2349L29.128 18.1072L17.5935 15.0588L9.89011 22.7622L10.7552 26.3462L21.301 29.065L23.4019 26.9641Z" fill="#9C81F4"/>
<path d="M55.147 19.412C56.347 19.412 57.443 19.66 58.435 20.156C59.427 20.636 60.267 21.332 60.955 22.244L58.819 24.812C58.403 23.628 57.811 22.652 57.043 21.884C56.275 21.116 55.363 20.732 54.307 20.732C53.395 20.732 52.667 21.02 52.123 21.596C51.579 22.172 51.307 22.9 51.307 23.78C51.307 24.548 51.491 25.196 51.859 25.724C52.243 26.236 52.707 26.66 53.251 26.996C53.811 27.316 54.563 27.692 55.507 28.124C56.467 28.572 57.235 28.964 57.811 29.3C58.387 29.636 58.867 30.084 59.251 30.644C59.651 31.204 59.851 31.884 59.851 32.684C59.851 34.092 59.347 35.188 58.339 35.972C57.347 36.756 56.051 37.148 54.451 37.148C53.347 37.148 52.291 36.924 51.283 36.476C50.275 36.012 49.491 35.38 48.931 34.58L50.995 32.204C51.443 33.356 52.035 34.276 52.771 34.964C53.523 35.652 54.331 35.996 55.195 35.996C55.851 35.996 56.379 35.796 56.779 35.396C57.195 34.996 57.403 34.524 57.403 33.98C57.403 33.452 57.243 32.988 56.923 32.588C56.603 32.172 56.195 31.82 55.699 31.532C55.203 31.228 54.539 30.876 53.707 30.476C52.635 29.948 51.763 29.476 51.091 29.06C50.419 28.628 49.843 28.068 49.363 27.38C48.899 26.692 48.667 25.86 48.667 24.884C48.667 23.844 48.947 22.908 49.507 22.076C50.083 21.244 50.867 20.596 51.859 20.132C52.851 19.652 53.947 19.412 55.147 19.412Z" fill="#9C81F4"/>
<path d="M68.2619 25.172C67.0619 25.94 66.1179 26.796 65.4299 27.74C64.7419 28.684 64.3979 29.796 64.3979 31.076C64.3979 31.796 64.5499 32.524 64.8539 33.26C65.1579 33.98 65.6139 34.58 66.2219 35.06C66.8299 35.54 67.5579 35.78 68.4059 35.78C69.0939 35.78 69.7019 35.62 70.2299 35.3C70.7739 34.98 71.1899 34.548 71.4779 34.004C71.7819 33.46 71.9339 32.86 71.9339 32.204C71.9339 31.452 71.7019 30.684 71.2379 29.9C70.7899 29.116 70.1979 28.452 69.4619 27.908C68.7259 27.364 67.9739 27.06 67.2059 26.996C67.5259 26.676 67.9099 26.34 68.3579 25.988C68.8059 25.636 69.2619 25.292 69.7259 24.956C70.8299 25.324 71.7019 26.028 72.3419 27.068C72.9819 28.092 73.3019 29.236 73.3019 30.5C73.3019 31.62 73.0699 32.7 72.6059 33.74C72.1579 34.764 71.4939 35.604 70.6139 36.26C69.7339 36.9 68.6939 37.22 67.4939 37.22C66.5339 37.22 65.6459 36.988 64.8299 36.524C64.0299 36.044 63.3979 35.396 62.9339 34.58C62.4699 33.764 62.2379 32.86 62.2379 31.868C62.2379 30.124 62.7499 28.612 63.7739 27.332C64.8139 26.052 66.1659 25.164 67.8299 24.668L68.2619 25.172Z" fill="#9C81F4"/>
<path d="M78.6012 31.772H78.6972C78.8572 30.892 79.1372 29.908 79.5372 28.82C79.9532 27.716 80.5052 26.748 81.1932 25.916C81.8812 25.084 82.6892 24.668 83.6172 24.668C84.1132 24.668 84.4732 24.852 84.6972 25.22C84.9372 25.572 85.0732 25.972 85.1052 26.42C85.1532 26.868 85.1772 27.46 85.1772 28.196V34.868C85.1772 35.06 85.2332 35.244 85.3452 35.42C85.4732 35.596 85.6652 35.684 85.9212 35.684C86.3372 35.684 86.7612 35.372 87.1932 34.748L87.4812 35.108C87.2572 35.636 86.8972 36.084 86.4012 36.452C85.9212 36.82 85.4332 37.004 84.9372 37.004C83.6892 37.004 83.0652 36.196 83.0652 34.58V28.22C83.0652 28.012 83.0172 27.82 82.9212 27.644C82.8412 27.468 82.6972 27.38 82.4892 27.38C81.6732 27.38 80.9692 28.02 80.3772 29.3C79.7852 30.564 79.3292 31.964 79.0092 33.5C78.6892 35.02 78.5292 36.052 78.5292 36.596L76.3932 37.22V15.62L78.6012 14.708V31.772Z" fill="#9C81F4"/>
<path d="M94.5475 27.812C93.8275 28.564 93.2035 29.548 92.6755 30.764C92.1635 31.964 91.9075 33.06 91.9075 34.052C91.9075 34.916 92.0915 35.644 92.4595 36.236C92.8435 36.812 93.4515 37.1 94.2835 37.1C94.9555 37.1 95.5955 36.924 96.2035 36.572C96.8275 36.22 97.3555 35.764 97.7875 35.204L97.5235 34.844C97.0275 35.18 96.5395 35.348 96.0595 35.348C95.3075 35.348 94.7395 35.084 94.3555 34.556C93.9715 34.028 93.7795 33.388 93.7795 32.636C93.7795 31.42 94.0915 30.268 94.7155 29.18C95.3395 28.092 96.1315 27.036 97.0915 26.012L96.7075 25.676C95.5875 26.38 94.5635 26.732 93.6355 26.732C93.0915 26.732 92.5955 26.492 92.1475 26.012C91.6995 25.516 91.3555 24.972 91.1155 24.38L89.1715 26.564C89.2835 26.884 89.5875 27.252 90.0835 27.668L88.4755 31.028L89.3635 31.436L90.9235 28.004C91.1955 28.116 91.4195 28.188 91.5955 28.22C91.7715 28.252 92.0115 28.268 92.3155 28.268C93.0995 28.268 93.8195 28.092 94.4755 27.74L94.5475 27.812Z" fill="#9C81F4"/>
<path d="M106.006 24.884C106.79 24.884 107.526 25.052 108.214 25.388C108.918 25.724 109.43 26.236 109.75 26.924L108.022 27.86C107.766 27.492 107.414 27.164 106.966 26.876C106.518 26.572 106.038 26.42 105.526 26.42C104.71 26.42 103.998 26.636 103.39 27.068C102.782 27.484 102.318 28.052 101.998 28.772C101.678 29.492 101.518 30.292 101.518 31.172C101.518 32.436 101.734 33.468 102.166 34.268C102.598 35.052 103.278 35.444 104.206 35.444C105.518 35.444 106.422 34.916 106.918 33.86C107.414 32.804 107.662 31.652 107.662 30.404V29.324L109.774 28.436V34.748C109.774 34.956 109.83 35.156 109.942 35.348C110.054 35.54 110.222 35.636 110.446 35.636C110.91 35.636 111.334 35.316 111.718 34.676L112.078 35.06C111.886 35.604 111.55 36.068 111.07 36.452C110.59 36.82 110.11 37.004 109.63 37.004C108.942 37.004 108.43 36.748 108.094 36.236C107.774 35.724 107.614 35.044 107.614 34.196H107.566C107.166 35.044 106.622 35.756 105.934 36.332C105.262 36.892 104.55 37.172 103.798 37.172C102.438 37.172 101.406 36.708 100.702 35.78C100.014 34.836 99.6698 33.58 99.6698 32.012C99.6698 30.764 99.9498 29.596 100.51 28.508C101.07 27.404 101.83 26.524 102.79 25.868C103.766 25.212 104.838 24.884 106.006 24.884Z" fill="#9C81F4"/>
<path d="M124.25 30.548C124.25 31.524 123.938 32.532 123.314 33.572C122.69 34.612 121.914 35.476 120.986 36.164C120.074 36.836 119.21 37.172 118.394 37.172C117.082 37.172 116.05 36.732 115.298 35.852C114.562 34.956 114.194 33.82 114.194 32.444V15.62L116.378 14.708V32.972C116.378 33.74 116.61 34.412 117.074 34.988C117.538 35.564 118.194 35.852 119.042 35.852C119.746 35.852 120.354 35.652 120.866 35.252C121.394 34.852 121.786 34.364 122.042 33.788C122.314 33.196 122.45 32.636 122.45 32.108C122.45 31.308 122.242 30.484 121.826 29.636C121.41 28.788 120.866 28.092 120.194 27.548C119.538 27.004 118.85 26.732 118.13 26.732L120.266 24.956C120.954 25.18 121.602 25.612 122.21 26.252C122.834 26.876 123.33 27.588 123.698 28.388C124.066 29.172 124.25 29.892 124.25 30.548Z" fill="#9C81F4"/>
<path d="M135.429 19.244V23.444C136.341 20.724 137.941 19.364 140.229 19.364C141.237 19.364 142.005 19.7 142.533 20.372C143.061 21.028 143.325 21.844 143.325 22.82V34.46C143.325 34.796 143.397 35.076 143.541 35.3C143.685 35.508 143.901 35.612 144.189 35.612C144.445 35.612 144.693 35.54 144.933 35.396C145.189 35.236 145.405 35.036 145.581 34.796L146.109 35.276C145.773 35.82 145.357 36.252 144.861 36.572C144.365 36.892 143.749 37.052 143.013 37.052C142.165 37.052 141.501 36.788 141.021 36.26C140.557 35.732 140.325 34.932 140.325 33.86V23.612C140.325 22.764 140.245 22.076 140.085 21.548C139.925 21.004 139.549 20.732 138.957 20.732C138.189 20.732 137.541 21.148 137.013 21.98C136.485 22.812 136.085 23.78 135.813 24.884C135.557 25.988 135.429 26.908 135.429 27.644V36.284L132.429 37.292V20.228L135.429 19.244Z" fill="#9C81F4"/>
<path d="M149.249 22.46L148.457 22.748L147.473 17.756L150.065 16.868L149.249 22.46ZM150.041 34.868C150.041 35.108 150.097 35.308 150.209 35.468C150.337 35.612 150.513 35.684 150.737 35.684C150.913 35.684 151.105 35.604 151.313 35.444C151.537 35.284 151.761 35.052 151.985 34.748L152.369 35.108C152.001 35.796 151.553 36.284 151.025 36.572C150.513 36.86 150.041 37.004 149.609 37.004C149.033 37.004 148.585 36.82 148.265 36.452C147.961 36.084 147.809 35.46 147.809 34.58V25.844L150.041 24.98V34.868Z" fill="#9C81F4"/>
<path d="M159.399 27.812C158.679 28.564 158.055 29.548 157.527 30.764C157.015 31.964 156.759 33.06 156.759 34.052C156.759 34.916 156.943 35.644 157.311 36.236C157.695 36.812 158.303 37.1 159.135 37.1C159.807 37.1 160.447 36.924 161.055 36.572C161.679 36.22 162.207 35.764 162.639 35.204L162.375 34.844C161.879 35.18 161.391 35.348 160.911 35.348C160.159 35.348 159.591 35.084 159.207 34.556C158.823 34.028 158.631 33.388 158.631 32.636C158.631 31.42 158.943 30.268 159.567 29.18C160.191 28.092 160.983 27.036 161.943 26.012L161.559 25.676C160.439 26.38 159.415 26.732 158.487 26.732C157.943 26.732 157.447 26.492 156.999 26.012C156.551 25.516 156.207 24.972 155.967 24.38L154.023 26.564C154.135 26.884 154.439 27.252 154.935 27.668L153.327 31.028L154.215 31.436L155.775 28.004C156.047 28.116 156.271 28.188 156.447 28.22C156.623 28.252 156.863 28.268 157.167 28.268C157.951 28.268 158.671 28.092 159.327 27.74L159.399 27.812Z" fill="#9C81F4"/>
<path d="M170.449 25.172C169.249 25.94 168.305 26.796 167.617 27.74C166.929 28.684 166.585 29.796 166.585 31.076C166.585 31.796 166.737 32.524 167.041 33.26C167.345 33.98 167.801 34.58 168.409 35.06C169.017 35.54 169.745 35.78 170.593 35.78C171.281 35.78 171.889 35.62 172.417 35.3C172.961 34.98 173.377 34.548 173.665 34.004C173.969 33.46 174.121 32.86 174.121 32.204C174.121 31.452 173.889 30.684 173.425 29.9C172.977 29.116 172.385 28.452 171.649 27.908C170.913 27.364 170.161 27.06 169.393 26.996C169.713 26.676 170.097 26.34 170.545 25.988C170.993 25.636 171.449 25.292 171.913 24.956C173.017 25.324 173.889 26.028 174.529 27.068C175.169 28.092 175.489 29.236 175.489 30.5C175.489 31.62 175.257 32.7 174.793 33.74C174.345 34.764 173.681 35.604 172.801 36.26C171.921 36.9 170.881 37.22 169.681 37.22C168.721 37.22 167.833 36.988 167.017 36.524C166.217 36.044 165.585 35.396 165.121 34.58C164.657 33.764 164.425 32.86 164.425 31.868C164.425 30.124 164.937 28.612 165.961 27.332C167.001 26.052 168.353 25.164 170.017 24.668L170.449 25.172Z" fill="#9C81F4"/>
<path d="M183.645 25.172C182.445 25.94 181.501 26.796 180.813 27.74C180.125 28.684 179.781 29.796 179.781 31.076C179.781 31.796 179.933 32.524 180.237 33.26C180.541 33.98 180.997 34.58 181.605 35.06C182.213 35.54 182.941 35.78 183.789 35.78C184.477 35.78 185.085 35.62 185.613 35.3C186.157 34.98 186.573 34.548 186.861 34.004C187.165 33.46 187.317 32.86 187.317 32.204C187.317 31.452 187.085 30.684 186.621 29.9C186.173 29.116 185.581 28.452 184.845 27.908C184.109 27.364 183.357 27.06 182.589 26.996C182.909 26.676 183.293 26.34 183.741 25.988C184.189 25.636 184.645 25.292 185.109 24.956C186.213 25.324 187.085 26.028 187.725 27.068C188.365 28.092 188.685 29.236 188.685 30.5C188.685 31.62 188.453 32.7 187.989 33.74C187.541 34.764 186.877 35.604 185.997 36.26C185.117 36.9 184.077 37.22 182.877 37.22C181.917 37.22 181.029 36.988 180.213 36.524C179.413 36.044 178.781 35.396 178.317 34.58C177.853 33.764 177.621 32.86 177.621 31.868C177.621 30.124 178.133 28.612 179.157 27.332C180.197 26.052 181.549 25.164 183.213 24.668L183.645 25.172Z" fill="#9C81F4"/>
</svg>
